<svg version="1.2" xmlns="http://www.w3.org/2000/svg" viewBox="0 0 282 94" width="423" height="141">
	<defs>
		<filter x="-50%" y="-50%" width="200%" height="200%" id="f1"> <feGaussianBlur stdDeviation="3"/> </filter>
	</defs>
	<style>
		.s0 { fill: #111317 } 
		.s1 { fill: none;stroke: #24fdf6;stroke-width: 2 } 
		.s2 { opacity: .25;filter: url(#f1);fill: #24fdf6 } 
	</style>
	<g>
		<path fill-rule="evenodd" class="s0" d="m47 89c-23.23 0-42-18.77-42-42 0-23.23 18.77-42 42-42 23.23 0 42 18.77 42 42 0 23.23-18.77 42-42 42z"/>
		<path fill-rule="evenodd" class="s1" d="m47 80c-18.25 0-33-14.75-33-33 0-18.25 14.75-33 33-33 18.25 0 33 14.75 33 33 0 18.25-14.75 33-33 33z"/>
	</g>
	<g>
		<path fill-rule="evenodd" class="s0" d="m141 89c-23.23 0-42-18.77-42-42 0-23.23 18.77-42 42-42 23.23 0 42 18.77 42 42 0 23.23-18.77 42-42 42z"/>
		<path fill-rule="evenodd" class="s1" d="m141 80c-18.25 0-33-14.75-33-33 0-18.25 14.75-33 33-33 18.25 0 33 14.75 33 33 0 18.25-14.75 33-33 33z"/>
		<g>
			<path fill-rule="evenodd" class="s2" d="m141 80c-18.25 0-33-14.75-33-33 0-18.25 14.75-33 33-33 18.25 0 33 14.75 33 33 0 18.25-14.75 33-33 33z"/>
		</g>
	</g>
	<g>
		<path fill-rule="evenodd" class="s0" d="m235 89c-23.23 0-42-18.77-42-42 0-23.23 18.77-42 42-42 23.23 0 42 18.77 42 42 0 23.23-18.77 42-42 42z"/>
		<path fill-rule="evenodd" class="s1" d="m235 80c-18.25 0-33-14.75-33-33 0-18.25 14.75-33 33-33 18.25 0 33 14.75 33 33 0 18.25-14.75 33-33 33z"/>
		<g>
			<path fill-rule="evenodd" class="s2" d="m235 80c-18.25 0-33-14.75-33-33 0-18.25 14.75-33 33-33 18.25 0 33 14.75 33 33 0 18.25-14.75 33-33 33z"/>
		</g>
	</g>
</svg>