<svg xmlns="http://www.w3.org/2000/svg" width="156" height="104"><circle cx="18.0" cy="9" r="12" fill="#16E3DD" opacity="0.32"/><rect x="1.2" y="1.2" width="33.6" height="49.6" rx="13" ry="13" fill="#16E3DD"/><path d="M 9.0 1.2 Q 18.0 11.2 27.0 1.2 L 27.0 1.2 Z" fill="#0b0e12"/><circle cx="61" cy="18.0" r="12" fill="#16E3DD" opacity="0.32"/><rect x="53.2" y="1.2" width="49.6" height="33.6" rx="13" ry="13" fill="#16E3DD"/><path d="M 53.2 11.0 Q 65.2 18.0 53.2 25.0 L 53.2 25.0 Z" fill="#0b0e12"/><circle cx="55.0" cy="43" r="12" fill="#16E3DD" opacity="0.32"/><rect x="38.2" y="1.2" width="33.6" height="49.6" rx="13" ry="13" fill="#16E3DD"/><path d="M 46.0 50.8 Q 55.0 40.8 64.0 50.8 L 64.0 50.8 Z" fill="#0b0e12"/><circle cx="147" cy="18.0" r="12" fill="#16E3DD" opacity="0.32"/><rect x="105.2" y="1.2" width="49.6" height="33.6" rx="13" ry="13" fill="#16E3DD"/><path d="M 154.8 11.0 Q 142.8 18.0 154.8 25.0 L 154.8 25.0 Z" fill="#0b0e12"/><circle cx="18.0" cy="61" r="12" fill="#11B6B1" opacity="0.32"/><rect x="1.2" y="53.2" width="33.6" height="49.6" rx="13" ry="13" fill="#11B6B1"/><path d="M 9.0 53.2 Q 18.0 63.2 27.0 53.2 L 27.0 53.2 Z" fill="#0b0e12"/><circle cx="61" cy="70.0" r="12" fill="#11B6B1" opacity="0.32"/><rect x="53.2" y="53.2" width="49.6" height="33.6" rx="13" ry="13" fill="#11B6B1"/><path d="M 53.2 63.0 Q 65.2 70.0 53.2 77.0 L 53.2 77.0 Z" fill="#0b0e12"/><circle cx="55.0" cy="95" r="12" fill="#11B6B1" opacity="0.32"/><rect x="38.2" y="53.2" width="33.6" height="49.6" rx="13" ry="13" fill="#11B6B1"/><path d="M 46.0 102.8 Q 55.0 92.8 64.0 102.8 L 64.0 102.8 Z" fill="#0b0e12"/><circle cx="147" cy="70.0" r="12" fill="#11B6B1" opacity="0.32"/><rect x="105.2" y="53.2" width="49.6" height="33.6" rx="13" ry="13" fill="#11B6B1"/><path d="M 154.8 63.0 Q 142.8 70.0 154.8 77.0 L 154.8 77.0 Z" fill="#0b0e12"/></svg>