<svg xmlns="http://www.w3.org/2000/svg" width="156" height="104"><rect x="3" y="3" width="30" height="46" rx="10" ry="10" fill="#18E8E1"/><polygon points="8.0,3 18.0,18 28.0,3" fill="#0b0e12"/><circle cx="18.0" cy="8" r="10" fill="#18E8E1" opacity="0.45"/><rect x="55" y="3" width="46" height="30" rx="10" ry="10" fill="#18E8E1"/><polygon points="55,8.0 70,18.0 55,28.0" fill="#0b0e12"/><circle cx="60" cy="18.0" r="10" fill="#18E8E1" opacity="0.45"/><rect x="40" y="3" width="30" height="46" rx="10" ry="10" fill="#18E8E1"/><polygon points="45.0,49 55.0,34 65.0,49" fill="#0b0e12"/><circle cx="55.0" cy="44" r="10" fill="#18E8E1" opacity="0.45"/><rect x="107" y="3" width="46" height="30" rx="10" ry="10" fill="#18E8E1"/><polygon points="153,8.0 138,18.0 153,28.0" fill="#0b0e12"/><circle cx="148" cy="18.0" r="10" fill="#18E8E1" opacity="0.45"/><rect x="3" y="55" width="30" height="46" rx="10" ry="10" fill="#13BDB8"/><polygon points="8.0,55 18.0,70 28.0,55" fill="#0b0e12"/><circle cx="18.0" cy="60" r="10" fill="#13BDB8" opacity="0.45"/><rect x="55" y="55" width="46" height="30" rx="10" ry="10" fill="#13BDB8"/><polygon points="55,60.0 70,70.0 55,80.0" fill="#0b0e12"/><circle cx="60" cy="70.0" r="10" fill="#13BDB8" opacity="0.45"/><rect x="40" y="55" width="30" height="46" rx="10" ry="10" fill="#13BDB8"/><polygon points="45.0,101 55.0,86 65.0,101" fill="#0b0e12"/><circle cx="55.0" cy="96" r="10" fill="#13BDB8" opacity="0.45"/><rect x="107" y="55" width="46" height="30" rx="10" ry="10" fill="#13BDB8"/><polygon points="153,60.0 138,70.0 153,80.0" fill="#0b0e12"/><circle cx="148" cy="70.0" r="10" fill="#13BDB8" opacity="0.45"/></svg>