<svg xmlns="http://www.w3.org/2000/svg" width="156" height="104"><rect x="3" y="3" width="30" height="46" rx="9" ry="9" fill="#18E8E1"/><polygon points="9.0,3 18.0,16 27.0,3" fill="#0b0e12"/><circle cx="18.0" cy="8" r="10" fill="#18E8E1" opacity="0.7"/><rect x="55" y="3" width="46" height="30" rx="9" ry="9" fill="#18E8E1"/><polygon points="55,9.0 68,18.0 55,27.0" fill="#0b0e12"/><circle cx="60" cy="18.0" r="10" fill="#18E8E1" opacity="0.7"/><rect x="40" y="3" width="30" height="46" rx="9" ry="9" fill="#18E8E1"/><polygon points="46.0,49 55.0,36 64.0,49" fill="#0b0e12"/><circle cx="55.0" cy="44" r="10" fill="#18E8E1" opacity="0.7"/><rect x="107" y="3" width="46" height="30" rx="9" ry="9" fill="#18E8E1"/><polygon points="153,9.0 140,18.0 153,27.0" fill="#0b0e12"/><circle cx="148" cy="18.0" r="10" fill="#18E8E1" opacity="0.7"/><rect x="3" y="55" width="30" height="46" rx="9" ry="9" fill="#11B7B2"/><polygon points="9.0,55 18.0,68 27.0,55" fill="#0b0e12"/><circle cx="18.0" cy="60" r="10" fill="#11B7B2" opacity="0.7"/><rect x="55" y="55" width="46" height="30" rx="9" ry="9" fill="#11B7B2"/><polygon points="55,61.0 68,70.0 55,79.0" fill="#0b0e12"/><circle cx="60" cy="70.0" r="10" fill="#11B7B2" opacity="0.7"/><rect x="40" y="55" width="30" height="46" rx="9" ry="9" fill="#11B7B2"/><polygon points="46.0,101 55.0,88 64.0,101" fill="#0b0e12"/><circle cx="55.0" cy="96" r="10" fill="#11B7B2" opacity="0.7"/><rect x="107" y="55" width="46" height="30" rx="9" ry="9" fill="#11B7B2"/><polygon points="153,61.0 140,70.0 153,79.0" fill="#0b0e12"/><circle cx="148" cy="70.0" r="10" fill="#11B7B2" opacity="0.7"/></svg>