<svg xmlns="http://www.w3.org/2000/svg" width="156" height="104"><circle cx="18.0" cy="9" r="13" fill="#18E8E1" opacity="0.28"/><rect x="2" y="2" width="32" height="48" rx="12" ry="12" fill="#18E8E1"/><path d="M 9.0 3 Q 18.0 12, 27.0 3 L 27.0 3 Z" fill="#0b0e12"/><circle cx="61" cy="18.0" r="13" fill="#18E8E1" opacity="0.28"/><rect x="54" y="2" width="48" height="32" rx="12" ry="12" fill="#18E8E1"/><path d="M 55 9.0 Q 64 18.0, 55 27.0 L 55 27.0 Z" fill="#0b0e12"/><circle cx="55.0" cy="43" r="13" fill="#18E8E1" opacity="0.28"/><rect x="39" y="2" width="32" height="48" rx="12" ry="12" fill="#18E8E1"/><path d="M 46.0 49 Q 55.0 40, 64.0 49 L 64.0 49 Z" fill="#0b0e12"/><circle cx="147" cy="18.0" r="13" fill="#18E8E1" opacity="0.28"/><rect x="106" y="2" width="48" height="32" rx="12" ry="12" fill="#18E8E1"/><path d="M 153 9.0 Q 144 18.0, 153 27.0 L 153 27.0 Z" fill="#0b0e12"/><circle cx="18.0" cy="61" r="13" fill="#12B7B2" opacity="0.28"/><rect x="2" y="54" width="32" height="48" rx="12" ry="12" fill="#12B7B2"/><path d="M 9.0 55 Q 18.0 64, 27.0 55 L 27.0 55 Z" fill="#0b0e12"/><circle cx="61" cy="70.0" r="13" fill="#12B7B2" opacity="0.28"/><rect x="54" y="54" width="48" height="32" rx="12" ry="12" fill="#12B7B2"/><path d="M 55 61.0 Q 64 70.0, 55 79.0 L 55 79.0 Z" fill="#0b0e12"/><circle cx="55.0" cy="95" r="13" fill="#12B7B2" opacity="0.28"/><rect x="39" y="54" width="32" height="48" rx="12" ry="12" fill="#12B7B2"/><path d="M 46.0 101 Q 55.0 92, 64.0 101 L 64.0 101 Z" fill="#0b0e12"/><circle cx="147" cy="70.0" r="13" fill="#12B7B2" opacity="0.28"/><rect x="106" y="54" width="48" height="32" rx="12" ry="12" fill="#12B7B2"/><path d="M 153 61.0 Q 144 70.0, 153 79.0 L 153 79.0 Z" fill="#0b0e12"/></svg>