<svg xmlns="http://www.w3.org/2000/svg" width="156" height="104"><circle cx="18.0" cy="8.5" r="14" fill="#038585" opacity="0.32"/><rect x="3.5" y="3.5" width="29.0" height="45.0" rx="12" ry="12" fill="#00f1f1"/><path d="M 10.0 3.5 Q 18.0 17.5 26.0 3.5" stroke="#072424" stroke-width="3.5" fill="none"/><circle cx="60.5" cy="18.0" r="14" fill="#038585" opacity="0.32"/><rect x="55.5" y="3.5" width="45.0" height="29.0" rx="12" ry="12" fill="#00f1f1"/><path d="M 55.5 11.0 Q 71.5 18.0 55.5 25.0" stroke="#072424" stroke-width="3.5" fill="none"/><circle cx="55.0" cy="43.5" r="14" fill="#038585" opacity="0.32"/><rect x="40.5" y="3.5" width="29.0" height="45.0" rx="12" ry="12" fill="#00f1f1"/><path d="M 47.0 48.5 Q 55.0 34.5 63.0 48.5" stroke="#072424" stroke-width="3.5" fill="none"/><circle cx="147.5" cy="18.0" r="14" fill="#038585" opacity="0.32"/><rect x="107.5" y="3.5" width="45.0" height="29.0" rx="12" ry="12" fill="#00f1f1"/><path d="M 152.5 11.0 Q 136.5 18.0 152.5 25.0" stroke="#072424" stroke-width="3.5" fill="none"/><circle cx="18.0" cy="60.5" r="14" fill="#038585" opacity="0.32"/><rect x="3.5" y="55.5" width="29.0" height="45.0" rx="12" ry="12" fill="#00f1f1"/><path d="M 10.0 55.5 Q 18.0 69.5 26.0 55.5" stroke="#072424" stroke-width="3.5" fill="none"/><circle cx="60.5" cy="70.0" r="14" fill="#038585" opacity="0.32"/><rect x="55.5" y="55.5" width="45.0" height="29.0" rx="12" ry="12" fill="#00f1f1"/><path d="M 55.5 63.0 Q 71.5 70.0 55.5 77.0" stroke="#072424" stroke-width="3.5" fill="none"/><circle cx="55.0" cy="95.5" r="14" fill="#038585" opacity="0.32"/><rect x="40.5" y="55.5" width="29.0" height="45.0" rx="12" ry="12" fill="#00f1f1"/><path d="M 47.0 100.5 Q 55.0 86.5 63.0 100.5" stroke="#072424" stroke-width="3.5" fill="none"/><circle cx="147.5" cy="70.0" r="14" fill="#038585" opacity="0.32"/><rect x="107.5" y="55.5" width="45.0" height="29.0" rx="12" ry="12" fill="#00f1f1"/><path d="M 152.5 63.0 Q 136.5 70.0 152.5 77.0" stroke="#072424" stroke-width="3.5" fill="none"/></svg>